<svg width="601" height="600" viewBox="0 0 601 600" fill="none" xmlns="http://www.w3.org/2000/svg">
<rect width="600" height="600" fill="white"/>
<rect y="558" width="600" height="42" fill="#6EC208"/>
<path d="M600 105V45C600 29.8981 600 18 600 18H327.254C315.006 18 304.252 26.1443 300.933 37.934L234 234L131.675 292.191C118.305 299.737 110.037 313.9 110.037 329.252V466.584L108.488 466.57L108 496.983L164.456 497.477L180.074 467.197L212.327 466.993C212.327 460.909 210.998 472.672 212.327 466.993C216 466.57 288 466.993 288 466.993C330.695 466.993 362.833 466.993 362.833 466.993C364.162 472.672 362.833 460.909 362.833 466.993H600C600 460.909 598.671 472.672 600 466.993C601.329 472.672 600 460.909 600 466.993V105Z" fill="#FDCB07"/>
<path d="M121.975 431.256V347.952C121.975 341.361 116.632 336.018 110.041 336.018C110.036 336.022 110.034 336.024 110.029 336.029V443.19H110.041C116.632 443.19 121.975 437.847 121.975 431.256Z" fill="#C6BBC3"/>
<path d="M192 431.262V347.957C192 341.366 155.335 336.023 110.106 336.023C110.075 336.028 110.058 336.03 110.027 336.034V443.196H110.106C155.335 443.196 192 437.853 192 431.262Z" fill="#E44848"/>
<path d="M600 53.8263V45.3444C600 30.2425 600 18 600 18H309.434C304.052 18 299.326 26.1447 297.867 37.934L295.459 53.8263H600Z" fill="#4E6A76"/>
<path d="M238.189 367.824C252.444 365.51 262.125 352.079 259.811 337.824C257.498 323.569 244.066 313.888 229.811 316.202C215.556 318.515 205.875 331.947 208.189 346.202C210.502 360.457 223.934 370.137 238.189 367.824Z" fill="#C6BBC3"/>
<path d="M215.25 341.992C215.25 352.342 223.639 360.731 233.988 360.731C244.338 360.731 252.727 352.342 252.727 341.992C252.727 331.643 244.338 323.254 233.988 323.254C223.639 323.254 215.25 331.643 215.25 341.992Z" fill="#363857"/>
<path d="M217.547 341.985C217.547 351.061 224.905 358.419 233.982 358.419C243.058 358.419 250.416 351.061 250.416 341.985C250.416 332.909 243.058 325.551 233.982 325.551C224.905 325.551 217.547 332.908 217.547 341.985Z" fill="#27383E"/>
<path d="M236.65 351.463C243.275 351.463 248.645 346.092 248.645 339.468C248.645 332.843 243.275 327.473 236.65 327.473C230.026 327.473 224.655 332.843 224.655 339.468C224.655 346.092 230.026 351.463 236.65 351.463Z" fill="#F8AC36"/>
<path d="M599.999 30C599.999 24 599.999 18 599.999 18H316.336C311.961 18 308.033 22.7252 305.999 30H599.999Z" fill="#557482"/>
<path d="M180.074 467.219L164.456 497.499L108 497.004L108.488 466.592L180.074 467.219Z" fill="#D6D2CF"/>
<path d="M600 294C600 294 600 294 600 294H126.688C126.443 295.872 126.214 297.775 126 299.713C126.092 299.889 126.192 300 126.299 300H600L600 294Z" fill="#3D545D"/>
<path d="M600 84.2481L474 84V266.479C474 271.737 474.987 276 476.204 276H597.796C599.013 276 600 271.737 600 266.479V167.863L600 84.2481Z" fill="#27383E"/>
<path d="M378.535 84C365.57 84 354.187 90.1072 350.674 98.9472L294.46 220.713C292.074 227.461 299.278 234 309.099 234H404.909C413.243 234 420 229.214 420 223.31V94.6901C420 88.7861 413.243 84 404.909 84H378.535Z" fill="#22B8F9"/>
<path d="M264.973 234C272.744 234 275.285 231.758 279.042 223.535L336 76.4643C336 70.6852 329.701 66 321.931 66H291L234 234H264.973Z" fill="#22B8F9"/>
<path d="M474 84.2344L485.12 162.781C485.793 166.511 486.735 168.629 487.721 168.629H600V84.2344H474Z" fill="#B77D00"/>
<path d="M531.016 420.402C518.514 358.576 463.499 312 397.508 312C331.517 312 276.501 358.576 264 420.402H282.844C280.819 428.988 279.715 437.925 279.715 447.123C279.715 511.672 332.453 564 397.508 564C462.564 564 515.301 511.672 515.301 447.123C515.301 437.925 514.197 428.988 512.172 420.402H531.016Z" fill="#2D3F46"/>
<path d="M480.778 529.753C526.778 484.111 526.778 410.109 480.778 364.466C434.777 318.824 360.195 318.824 314.195 364.466C268.194 410.109 268.194 484.111 314.195 529.753C360.195 575.396 434.777 575.396 480.778 529.753Z" fill="#3D4063"/>
<path d="M445.156 494.426C471.48 468.307 471.48 425.959 445.156 399.84C418.832 373.721 376.153 373.721 349.829 399.84C323.505 425.959 323.505 468.307 349.829 494.426C376.153 520.545 418.832 520.545 445.156 494.426Z" fill="#D5D2DD"/>
<path d="M442.179 491.458C466.861 466.968 466.861 427.263 442.179 402.773C417.498 378.283 377.481 378.283 352.799 402.773C328.118 427.263 328.118 466.968 352.799 491.458C377.481 515.947 417.498 515.947 442.179 491.458Z" fill="#AEA5AC"/>
<path d="M407.038 487.034C429.284 481.822 443.059 459.703 437.806 437.631C432.553 415.558 410.261 401.89 388.016 407.102C365.77 412.314 351.995 434.432 357.248 456.505C362.501 478.577 384.792 492.245 407.038 487.034Z" fill="#CDC4CD"/>
</svg>
