<svg width="109" height="108" viewBox="0 0 109 108" fill="none" xmlns="http://www.w3.org/2000/svg">
<g filter="url(#filter0_d_590_58268)">
<rect width="100" height="100" transform="translate(4)" fill="white"/>
<rect x="4" y="93" width="100" height="7" fill="#6EC208"/>
<path d="M104 17.5V7.5C104 4.98301 104 3 104 3H58.5423C56.501 3 54.7087 4.35739 54.1554 6.32233L43 39L25.9458 48.6985C23.7176 49.9562 22.3395 52.3166 22.3395 54.8754V77.764L22.0814 77.7617L22 82.8304L31.4093 82.9129L34.0124 77.8662L39.3879 77.8321C39.3879 76.8181 39.1664 78.7786 39.3879 77.8321C40 77.7617 52 77.8321 52 77.8321C59.1159 77.8321 64.4722 77.8321 64.4722 77.8321C64.6937 78.7786 64.4722 76.8181 64.4722 77.8321H104C104 76.8181 103.779 78.7786 104 77.8321C104.221 78.7786 104 76.8181 104 77.8321V17.5Z" fill="#FDCB07"/>
<path d="M24.3293 71.877V57.9929C24.3293 56.8944 23.4388 56.0039 22.3403 56.0039C22.3395 56.0046 22.3391 56.005 22.3384 56.0057V73.866H22.3403C23.4388 73.866 24.3293 72.9755 24.3293 71.877Z" fill="#C6BBC3"/>
<path d="M36 71.877V57.9929C36 56.8944 29.8892 56.0039 22.351 56.0039C22.3458 56.0046 22.343 56.005 22.3379 56.0057V73.866H22.351C29.8892 73.866 36 72.9755 36 71.877Z" fill="#E44848"/>
<path d="M104 8.97105V7.5574C104 5.04041 104 3 104 3H55.5723C54.6753 3 53.8876 4.35746 53.6445 6.32233L53.2432 8.97105H104Z" fill="#4E6A76"/>
<path d="M43.6982 61.304C46.074 60.9184 47.6874 58.6798 47.3018 56.304C46.9163 53.9281 44.6777 52.3147 42.3018 52.7003C39.926 53.0859 38.3126 55.3244 38.6982 57.7003C39.0837 60.0761 41.3223 61.6895 43.6982 61.304Z" fill="#C6BBC3"/>
<path d="M39.875 56.998C39.875 58.7229 41.2733 60.1212 42.9982 60.1212C44.723 60.1212 46.1213 58.7229 46.1213 56.998C46.1213 55.2732 44.723 53.875 42.9982 53.875C41.2733 53.875 39.875 55.2732 39.875 56.998Z" fill="#363857"/>
<path d="M40.2578 56.9968C40.2578 58.5095 41.484 59.7359 42.9968 59.7359C44.5096 59.7359 45.7359 58.5095 45.7359 56.9968C45.7359 55.4841 44.5095 54.2578 42.9968 54.2578C41.4841 54.2578 40.2578 55.484 40.2578 56.9968Z" fill="#27383E"/>
<path d="M43.4416 58.5765C44.5457 58.5765 45.4407 57.6814 45.4407 56.5773C45.4407 55.4732 44.5457 54.5781 43.4416 54.5781C42.3374 54.5781 41.4424 55.4732 41.4424 56.5773C41.4424 57.6814 42.3374 58.5765 43.4416 58.5765Z" fill="#F8AC36"/>
<path d="M104 5C104 4 104 3 104 3H56.7228C55.9936 3 55.3391 3.78753 55 5H104Z" fill="#557482"/>
<path d="M34.0123 77.8702L31.4093 82.9169L22 82.8344L22.0814 77.7656L34.0123 77.8702Z" fill="#D6D2CF"/>
<path d="M104 49C104 49 104 49 104 49H25.1146C25.0739 49.312 25.0357 49.6292 25 49.9521C25.0153 49.9814 25.0319 50 25.0499 50H104L104 49Z" fill="#3D545D"/>
<path d="M104 14.0414L83 14V44.4131C83 45.2895 83.1645 46 83.3673 46H103.633C103.836 46 104 45.2895 104 44.4131V27.9772L104 14.0414Z" fill="#27383E"/>
<path d="M67.0892 14C64.9284 14 63.0311 15.0179 62.4456 16.4912L53.0766 36.7855C52.679 37.9101 53.8797 39 55.5164 39H71.4848C72.8739 39 74 38.2023 74 37.2183V15.7817C74 14.7977 72.8739 14 71.4848 14H67.0892Z" fill="#22B8F9"/>
<path d="M48.1622 39C49.4573 39 49.8808 38.6264 50.507 37.2559L60 12.7441C60 11.7809 58.9502 11 57.6552 11H52.5L43 39H48.1622Z" fill="#22B8F9"/>
<path d="M83 14.0391L84.8534 27.1301C84.9655 27.7518 85.1225 28.1048 85.2868 28.1048H104V14.0391H83Z" fill="#B77D00"/>
<path d="M92.5026 70.067C90.4191 59.7627 81.2498 52 70.2513 52C59.2528 52 50.0835 59.7627 48 70.067H51.1407C50.8032 71.498 50.6191 72.9875 50.6191 74.5205C50.6191 85.2787 59.4088 94 70.2514 94C81.094 94 89.8836 85.2787 89.8836 74.5205C89.8836 72.9875 89.6994 71.4981 89.3619 70.067H92.5026Z" fill="#2D3F46"/>
<path d="M84.1296 88.2922C91.7964 80.6851 91.7964 68.3515 84.1296 60.7444C76.4628 53.1373 64.0326 53.1373 56.3658 60.7444C48.699 68.3515 48.699 80.6851 56.3658 88.2922C64.0326 95.8993 76.4628 95.8993 84.1296 88.2922Z" fill="#3D4063"/>
<path d="M78.1927 82.4036C82.5801 78.0504 82.5801 70.9925 78.1927 66.6393C73.8054 62.2861 66.6921 62.2861 62.3048 66.6393C57.9175 70.9925 57.9175 78.0505 62.3048 82.4037C66.6921 86.7569 73.8054 86.7568 78.1927 82.4036Z" fill="#D5D2DD"/>
<path d="M77.6965 81.9099C81.8101 77.8283 81.8101 71.2107 77.6965 67.1292C73.583 63.0476 66.9135 63.0476 62.7999 67.1291C58.6863 71.2107 58.6863 77.8283 62.7999 81.9099C66.9135 85.9915 73.5829 85.9915 77.6965 81.9099Z" fill="#AEA5AC"/>
<path d="M71.8396 81.1729C75.5472 80.3042 77.8431 76.6179 76.9676 72.9391C76.0921 69.2604 72.3768 66.9823 68.6692 67.851C64.9617 68.7196 62.6658 72.406 63.5412 76.0848C64.4167 79.7635 68.132 82.0416 71.8396 81.1729Z" fill="#CDC4CD"/>
</g>
<defs>
<filter id="filter0_d_590_58268" x="0" y="0" width="108.099" height="108" filterUnits="userSpaceOnUse" color-interpolation-filters="sRGB">
<feFlood flood-opacity="0" result="BackgroundImageFix"/>
<feColorMatrix in="SourceAlpha" type="matrix" values="0 0 0 0 0 0 0 0 0 0 0 0 0 0 0 0 0 0 127 0" result="hardAlpha"/>
<feOffset dy="4"/>
<feGaussianBlur stdDeviation="2"/>
<feComposite in2="hardAlpha" operator="out"/>
<feColorMatrix type="matrix" values="0 0 0 0 0 0 0 0 0 0 0 0 0 0 0 0 0 0 0.25 0"/>
<feBlend mode="normal" in2="BackgroundImageFix" result="effect1_dropShadow_590_58268"/>
<feBlend mode="normal" in="SourceGraphic" in2="effect1_dropShadow_590_58268" result="shape"/>
</filter>
</defs>
</svg>
